<mxfile host="65bd71144e">
    <diagram id="F8D3OWkUI7jB8p7da1pu" name="Page-1">
        <mxGraphModel dx="5371" dy="3486" grid="1" gridSize="10" guides="1" tooltips="1" connect="1" arrows="1" fold="1" page="1" pageScale="1" pageWidth="850" pageHeight="1100" math="0" shadow="0">
            <root>
                <mxCell id="0"/>
                <mxCell id="1" parent="0"/>
                <mxCell id="20" value="LAN 1" style="rounded=1;whiteSpace=wrap;html=1;strokeWidth=7;fontSize=50;fillColor=none;arcSize=5;verticalAlign=top;" vertex="1" parent="1">
                    <mxGeometry x="10" width="910" height="840" as="geometry"/>
                </mxCell>
                <mxCell id="2" value="" style="ellipse;shape=cloud;whiteSpace=wrap;html=1;" vertex="1" parent="1">
                    <mxGeometry x="50" y="140" width="440" height="410" as="geometry"/>
                </mxCell>
                <mxCell id="3" value="" style="ellipse;shape=cloud;whiteSpace=wrap;html=1;" vertex="1" parent="1">
                    <mxGeometry x="490" y="105" width="440" height="410" as="geometry"/>
                </mxCell>
                <mxCell id="5" value="" style="ellipse;whiteSpace=wrap;html=1;aspect=fixed;fillColor=none;dashed=1;dashPattern=12 12;fontColor=#ffffff;strokeColor=#2D7600;strokeWidth=7;" vertex="1" parent="1">
                    <mxGeometry x="180" y="135" width="350" height="350" as="geometry"/>
                </mxCell>
                <mxCell id="4" value="Player 1" style="shape=umlActor;verticalLabelPosition=bottom;verticalAlign=top;html=1;outlineConnect=0;" vertex="1" parent="1">
                    <mxGeometry x="350" y="290" width="20" height="40" as="geometry"/>
                </mxCell>
                <mxCell id="6" value="&lt;font style=&quot;font-size: 48px;&quot;&gt;A&lt;/font&gt;" style="ellipse;whiteSpace=wrap;html=1;aspect=fixed;strokeWidth=7;fillColor=none;" vertex="1" parent="1">
                    <mxGeometry x="460" y="115" width="260" height="260" as="geometry"/>
                </mxCell>
                <mxCell id="7" value="&lt;font style=&quot;font-size: 48px;&quot;&gt;B&lt;br&gt;&lt;/font&gt;" style="ellipse;whiteSpace=wrap;html=1;aspect=fixed;strokeWidth=7;fillColor=none;" vertex="1" parent="1">
                    <mxGeometry x="660" y="345" width="130" height="130" as="geometry"/>
                </mxCell>
                <mxCell id="8" value="&lt;font style=&quot;font-size: 48px;&quot;&gt;C&lt;br&gt;&lt;/font&gt;" style="ellipse;whiteSpace=wrap;html=1;aspect=fixed;strokeWidth=3;fillColor=none;" vertex="1" parent="1">
                    <mxGeometry x="90" y="310" width="45" height="45" as="geometry"/>
                </mxCell>
                <mxCell id="9" value="Instance 1" style="rounded=1;whiteSpace=wrap;html=1;strokeWidth=7;fontSize=48;fillColor=none;" vertex="1" parent="1">
                    <mxGeometry x="150" y="580" width="250" height="60" as="geometry"/>
                </mxCell>
                <mxCell id="10" value="Instance 2" style="rounded=1;whiteSpace=wrap;html=1;strokeWidth=7;fontSize=48;fillColor=none;" vertex="1" parent="1">
                    <mxGeometry x="600" y="580" width="250" height="60" as="geometry"/>
                </mxCell>
                <mxCell id="11" value="&lt;span style=&quot;font-size: 24px;&quot;&gt;IP Address: 10.1.10.34&lt;/span&gt;" style="text;html=1;strokeColor=none;fillColor=none;align=left;verticalAlign=top;whiteSpace=wrap;rounded=0;strokeWidth=7;fontSize=48;horizontal=1;" vertex="1" parent="1">
                    <mxGeometry x="140" y="650" width="270" height="70" as="geometry"/>
                </mxCell>
                <mxCell id="12" value="&lt;span style=&quot;font-size: 24px;&quot;&gt;IP Address: 10.1.10.35&lt;br&gt;&lt;/span&gt;" style="text;html=1;strokeColor=none;fillColor=none;align=left;verticalAlign=top;whiteSpace=wrap;rounded=0;strokeWidth=7;fontSize=48;horizontal=1;" vertex="1" parent="1">
                    <mxGeometry x="590" y="650" width="270" height="70" as="geometry"/>
                </mxCell>
                <mxCell id="22" value="&lt;h1 style=&quot;font-size: 40px;&quot;&gt;Multi-instance replication thought map&lt;/h1&gt;&lt;p style=&quot;font-size: 40px;&quot;&gt;Handeling replication between a theoretically infinite number of game sevrers is no small feat. The replication process is assisted by a set of instance maps that are kept by the master servers in the Horizon network.&lt;/p&gt;&lt;p style=&quot;font-size: 40px;&quot;&gt;These instance maps come in the form of graph DBs of LANs containing the Horizon instances and distances between them in ms of average ping.&lt;/p&gt;&lt;p style=&quot;font-size: 40px;&quot;&gt;The instance map is used to determine what nodes should be serving specific in-world regions. Further regions will end up on physically further servers to help reduce the effects of network latency.&lt;/p&gt;" style="text;html=1;strokeColor=none;fillColor=none;spacing=5;spacingTop=-20;whiteSpace=wrap;overflow=hidden;rounded=0;strokeWidth=7;fontSize=40;" vertex="1" parent="1">
                    <mxGeometry x="220" y="-840" width="1270" height="680" as="geometry"/>
                </mxCell>
                <mxCell id="23" value="&lt;h1 style=&quot;font-size: 40px;&quot;&gt;In these examples&lt;/h1&gt;&lt;p style=&quot;font-size: 40px;&quot;&gt;&lt;span style=&quot;background-color: initial;&quot;&gt;In Case A the player does recieve the replicated event, this is because the event radius enters the player's render distance, so even though the affected object is not in the players direct render distance, it considered to be in their simulation distance.&lt;/span&gt;&lt;/p&gt;&lt;p style=&quot;font-size: 40px;&quot;&gt;&lt;span style=&quot;background-color: initial;&quot;&gt;In case B the player does not see the event as it is too far, the player's server also does not know about this event since no players within that server will have had this event&lt;/span&gt;&lt;/p&gt;&lt;p style=&quot;font-size: 40px;&quot;&gt;&lt;span style=&quot;background-color: initial;&quot;&gt;In case C the player does not recieve the event, even though it happens on the local server, this is because it is not near enough to the player and has a small propagation radius, perhaps this is a small weapon being drawn by another character.&lt;/span&gt;&lt;/p&gt;" style="text;html=1;strokeColor=none;fillColor=none;spacing=5;spacingTop=-20;whiteSpace=wrap;overflow=hidden;rounded=0;strokeWidth=7;fontSize=40;" vertex="1" parent="1">
                    <mxGeometry x="970" y="-20" width="700" height="1100" as="geometry"/>
                </mxCell>
            </root>
        </mxGraphModel>
    </diagram>
</mxfile>